<svg width="49" height="49" viewBox="0 0 49 49" fill="none" xmlns="http://www.w3.org/2000/svg">
<path d="M24.5 2.29688C12.25 2.29688 2.29688 12.25 2.29688 24.5C2.29688 36.75 12.25 46.7031 24.5 46.7031C36.75 46.7031 46.7031 36.75 46.7031 24.5C46.7031 12.25 36.75 2.29688 24.5 2.29688ZM24.5 4.59375C35.4867 4.59375 44.4062 13.5133 44.4062 24.5C44.4062 35.4867 35.4867 44.4062 24.5 44.4062C13.5133 44.4062 4.59375 35.4867 4.59375 24.5C4.59375 13.5133 13.5133 4.59375 24.5 4.59375ZM32.5533 18.7384C32.2614 18.7479 31.965 18.8728 31.7353 19.1025L23.7344 27.4092L19.5616 22.9306C19.1405 22.4712 18.4134 22.4325 17.9541 22.8536C17.4947 23.2747 17.456 24.0025 17.877 24.4619L22.8925 29.8594C23.1222 30.0891 23.3898 30.2422 23.7344 30.2422C24.0406 30.2422 24.3466 30.1272 24.5763 29.8975L33.381 20.6719C33.802 20.2125 33.8022 19.4855 33.3428 19.0644C33.1323 18.8347 32.8452 18.7288 32.5533 18.7384Z" fill="white"/>
</svg>
