<svg width="37" height="37" viewBox="0 0 37 37" fill="none" xmlns="http://www.w3.org/2000/svg">
<path d="M18.5 1.73438C9.25 1.73438 1.73438 9.25 1.73438 18.5C1.73438 27.75 9.25 35.2656 18.5 35.2656C27.75 35.2656 35.2656 27.75 35.2656 18.5C35.2656 9.25 27.75 1.73438 18.5 1.73438ZM18.5 3.46875C26.7961 3.46875 33.5312 10.2039 33.5312 18.5C33.5312 26.7961 26.7961 33.5312 18.5 33.5312C10.2039 33.5312 3.46875 26.7961 3.46875 18.5C3.46875 10.2039 10.2039 3.46875 18.5 3.46875ZM24.581 14.1494C24.3606 14.1566 24.1368 14.2509 23.9634 14.4243L17.9219 20.6968L14.771 17.315C14.453 16.9681 13.904 16.9388 13.5571 17.2568C13.2103 17.5748 13.181 18.1243 13.499 18.4712L17.2862 22.5469C17.4596 22.7203 17.6617 22.8359 17.9219 22.8359C18.1531 22.8359 18.3841 22.7491 18.5576 22.5757L25.206 15.6094C25.524 15.2625 25.5241 14.7135 25.1772 14.3955C25.0182 14.2221 24.8014 14.1422 24.581 14.1494Z" fill="#227DFC"/>
</svg>
