<svg width="26" height="26" viewBox="0 0 26 26" fill="none" xmlns="http://www.w3.org/2000/svg">
<path d="M11.2668 2.59998C6.49056 2.59998 2.6001 6.49044 2.6001 11.2666C2.6001 16.0428 6.49056 19.9333 11.2668 19.9333C13.3437 19.9333 15.2512 19.1958 16.7461 17.9715L21.9207 23.1461C22.0005 23.2292 22.0962 23.2957 22.202 23.3414C22.3079 23.3871 22.4218 23.4113 22.5371 23.4125C22.6524 23.4137 22.7668 23.3918 22.8735 23.3482C22.9803 23.3047 23.0773 23.2402 23.1588 23.1587C23.2403 23.0771 23.3048 22.9802 23.3484 22.8734C23.3919 22.7666 23.4138 22.6523 23.4126 22.537C23.4114 22.4217 23.3873 22.3078 23.3415 22.2019C23.2958 22.0961 23.2294 22.0004 23.1462 21.9205L17.9716 16.7459C19.1959 15.251 19.9334 13.3436 19.9334 11.2666C19.9334 6.49044 16.043 2.59998 11.2668 2.59998ZM11.2668 4.33331C15.1062 4.33331 18.2001 7.4272 18.2001 11.2666C18.2001 15.1061 15.1062 18.2 11.2668 18.2C7.42732 18.2 4.33343 15.1061 4.33343 11.2666C4.33343 7.4272 7.42732 4.33331 11.2668 4.33331Z" fill="#868686"/>
</svg>
